#!OML:ASF F:\VICON\USERDATA\INSTALL\rory3\rory3.ASF
:FULLY-SPECIFIED
:DEGREES
71
root 0.531824908816974 17.50218773725418 33.565130252572544 2.224025429978777 3.114075643564374 1.2857131551140357
lfemur -8.641949822438866 -0.6790711908165404 -25.419641131667973
ltibia 29.19219829028204
lfoot 2.1967801602610484 -10.455718087396408
ltoes -7.102306290479272
rfemur -28.994196674193276 1.4461908668600418 23.34900839936653
rtibia 69.07159200665295
rfoot 0.25080657996282685 -5.099675121946955
rtoes 1.2952575235439752
lowerback 13.517209121323152 0.030925664589244617 -1.3883936222706754
upperback -0.6203517377202948 -0.28814448054161756 0.6044536768666847
thorax -8.360765794966627 0.35646849384778795 1.8777941790387456
lowerneck -19.875832417382874 -3.477786379973841 -1.973670477977883
upperneck 11.26149986306475 -4.252868644886074 3.1108508777950203
head 6.510662901875438 -2.1868247758087884 0.8776798952681373
lclavicle 4.287488207731266e-15 5.75886165290891e-17
lhumerus -39.70278192133592 -13.886606331390189 95.8665624945246
lradius 110.44461685737812
lwrist 28.85002363468878
lhand -29.44874764321424 2.4923980219475697
lfingers 7.125019999999998
lthumb -3.3816603475403686 32.06841103230215
rclavicle 4.28752700038245e-15 5.761646213958064e-17
rhumerus -46.55169368272023 14.567226125825329 -101.32773304846003
rradius 105.57651742912466
rwrist -9.596657565375931
rhand -20.410874357537192 36.59400192932353
rfingers 7.125019999999998
rthumb 5.981859211502627 6.433805331874883
72
root 0.6048210963408562 17.67847402172213 35.851295164170295 2.5879419599092035 2.5286442905748476 1.3027239549045166
lfemur -8.541808978972306 -0.4052768345983683 -25.01825698207929
ltibia 29.669350580212743
lfoot 2.650004251009337 -10.481530069294829
ltoes -7.117038247394209
rfemur -29.391465771992728 2.2229443603456214 24.009775423278015
rtibia 64.59494315216072
rfoot 0.3064711334888188 -5.084744305181209
rtoes 1.8254268018084243
lowerback 13.277388117467295 -0.1151945410127182 -1.3678102475168987
upperback -0.7294975765377961 -0.4114270890217786 0.8079493524589936
thorax -8.31117320912637 0.30307967940179714 2.153164355746876
lowerneck -19.913031443767803 -3.4450369673631056 -2.0263134519670385
upperneck 11.307775679195627 -4.28000475062673 3.0288698973928057
head 6.499001691039894 -2.173914056574503 0.8663527212178797
lclavicle 4.287488207731266e-15 5.75886165290891e-17
lhumerus -38.70111660290115 -13.946877028582186 95.87356252843469
lradius 110.57787670755411
lwrist 28.758787640168574
lhand -29.451865961378957 2.4132574797361377
lfingers 7.125019999999998
lthumb -3.4507308823324387 32.14124588693365
rclavicle 4.28752700038245e-15 5.761646213958064e-17
rhumerus -47.79873394922682 14.365808559492995 -101.32501403936973
rradius 105.63889146538263
rwrist -9.46458554061139
rhand -20.42918892395358 36.54815188231563
rfingers 7.125019999999998
rthumb 5.9586800067289625 6.4290139047659665
73
root 0.6491152334879 17.814547079461676 35.84159415086514 2.756353608683151 1.4137164031768306 1.0038987363508993
lfemur -7.6372319229509635 0.04619459859237432 -24.391326481252513
ltibia 31.502010470563864
lfoot 2.7997792230728615 -10.124550426036958
ltoes -6.7336425745144926
rfemur -28.557720767877804 2.8872082628476283 24.635787644923496
rtibia 59.98278232127999
rfoot -0.38119754758736757 -5.157064275905291
rtoes 2.3820959654114944
lowerback 12.994057151047413 -0.21778470031319896 -1.273258567576453
upperback -0.851503364801253 -0.4719485278110671 1.0417814156577503
thorax -8.253705614592864 0.25036190915018885 2.3476149913537734
lowerneck -19.88309764647531 -3.368757541557934 -2.0318330390769077
upperneck 11.225969437722489 -4.347017196487551 2.9364165031063636
head 6.478708007752955 -2.190088526300513 0.8436577328275263
lclavicle 4.287488207731266e-15 5.75886165290891e-17
lhumerus -38.773709413702385 -14.157998735394319 95.77213325413427
lradius 110.53325907728299
lwrist 28.744963035681884
lhand -29.332816158957687 2.5683138071117466
lfingers 7.125019999999998
lthumb -3.432855997229436 32.33929469596641
rclavicle 4.28752700038245e-15 5.761646213958064e-17
rhumerus -48.98934775684393 14.189766619591333 -101.24637519366375
rradius 105.69468461709033
rwrist -9.41039128836683
rhand -20.43188110943547 36.52825792592007
rfingers 7.125019999999998
rthumb 6.042267043088321 6.552521135694324
74
root 0.71507682042585 17.961481974114466 36.92651479496053 3.009893217033537 0.5276098680873444 0.7799847417240029
lfemur -8.148872452671027 0.32342193470585767 -23.90256493807938
ltibia 34.25468254037533
lfoot 3.826919858347014 -9.77822564838619
ltoes -6.4409813783972085
rfemur -27.816591843633123 3.7206539123338485 25.067429941812584
rtibia 55.50112356757111
rfoot -1.6175937484934626 -5.188361131638104
rtoes 2.395246350594928
lowerback 12.672434045000974 -0.325058322801014 -1.18263794227032
upperback -0.9941878304826844 -0.5878856603518781 1.2402043366470328
thorax -8.225120435884191 0.20812627025670905 2.5049022771965666
lowerneck -19.960176737942756 -3.371472289018701 -2.0705216883087374
upperneck 11.076198762590924 -4.451164280735069 2.858076947379861
head 6.475308697212489 -2.1949319502626707 0.8295722554264354
lclavicle 4.287488207731266e-15 5.75886165290891e-17
lhumerus -38.257409391188176 -14.062376929358194 95.98448345157368
lradius 110.32996229966228
lwrist 28.825165458363365
lhand -29.389940703956313 2.5360992575847785
lfingers 7.125019999999998
lthumb -3.4007014642600844 32.48427838015749
rclavicle 4.28752700038245e-15 5.761646213958064e-17
rhumerus -50.03497371397586 14.02253538165484 -101.10514132414579
rradius 105.73115018703905
rwrist -9.299593524485134
rhand -20.44219828626373 36.53311175771276
rfingers 7.125019999999998
rthumb 5.997036581144407 6.594647491753687
